PathFileType	4	(X/Y/Z)	C:/Users/beibeiliu/ov580/test_trc/capture2\sequence.38_training_dense_left.trc
DataRate	CameraRate	NumFrames	NumMarkers	Units	OrigDataRate	OrigDataStartFrame	OrigNumFrames
120	120	17	19	mm	120	201	400
Frame#	Time	ThumbCMC			ThumbMCP			ThumbIP			ThumbTip			IndexMCP			IndexPIP			IndexTip			MiddleMCP			MiddlePIP			MiddleTip			RingMCP			RingPIP			RingTip			PinkyMCP			PinkyPIP			PinkyTip			BackHand1			BackHand2			BackHand3	
		X0	Y0	Z0	X1	Y1	Z1	X2	Y2	Z2	X3	Y3	Z3	X4	Y4	Z4	X5	Y5	Z5	X6	Y6	Z6	X7	Y7	Z7	X8	Y8	Z8	X9	Y9	Z9	X10	Y10	Z10	X11	Y11	Z11	X12	Y12	Z12	X13	Y13	Z13	X14	Y14	Z14	X15	Y15	Z15	X16	Y16	Z16	X17	Y17	Z17	X18	Y18	Z18	
200	1.66667	-124.27	-27.4391	35.9091	-133.568	-39.7822	5.9095	-136.329	-42.3408	-22.9318	-141.73	-24.0686	-40.9986	-87.1583	1.32967	-22.2324	-81.0112	-5.11998	-45.3838	-83.5862	-11.9452	-74.2663	-101.015	23.9919	-23.9305	-91.4248	22.9744	-56.1839	-97.2153	22.7409	-84.56	-120.515	27.0636	-27.7786	-132.306	16.4189	-55.8697	-150.112	-13.6574	-50.2998	-140.666	39.9775	-20.7162	-142.486	43.4534	-43.2991	-142.704	53.7252	-67.8134	-129.151	33.7785	24.7415	-138.485	32.9102	52.256	-112.26	11.7807	43.575	
201	1.675	-123.632	-28.8118	35.9662	-134.236	-45.5423	8.50489	-136.083	-43.8464	-18.9019	-142.023	-28.4852	-41.0664	-90.0906	1.14356	-20.2914	-83.2029	-4.15146	-50.2676	-86.0223	-10.0551	-72.7848	-97.9448	21.669	-25.3932	-94.1759	22.7933	-57.5738	-97.1024	21.1432	-85.244	-123.426	30.7488	-32.3757	-136.997	13.5674	-56.9189	-154.404	-14.6741	-47.9108	-142.168	41.6495	-22.5289	-143.927	45.3426	-47.1028	-143.987	50.592	-67.7613	-127.696	34.6639	20.7077	-136.879	30.5166	53.5773	-111.101	11.0121	43.8861	
202	1.68333	-125.5	-29.3684	40.2489	-133.736	-38.6712	6.71774	-136.194	-41.637	-19.9314	-142.09	-30.5709	-43.0889	-89.1714	-1.89758	-17.5507	-81.4333	-6.27986	-48.3191	-88.0341	-9.67	-73.1115	-99.2525	19.724	-24.1903	-92.9339	20.6852	-57.2836	-99.7506	20.7839	-84.3453	-120.776	26.2948	-30.6468	-131.155	14.3061	-55.8916	-150.29	-13.1866	-51.3061	-141.515	39.6633	-24.8655	-143.781	42.9407	-42.579	-143.446	50.5465	-67.0918	-127.301	31.5048	20.7633	-134.878	30.8473	51.7196	-111.374	9.98592	38.9574	
203	1.69167	-123.579	-29.6241	37.0724	-134.168	-43.0279	4.94372	-136.504	-44.616	-22.4452	-141.604	-29.3696	-40.9568	-90.1616	0.32382	-18.9483	-81.4759	-5.97269	-44.7354	-88.1999	-9.98359	-73.1879	-100.8	20.1935	-24.1542	-93.948	20.477	-55.0227	-96.8073	16.1014	-84.0531	-124.474	29.3157	-29.8764	-133.065	12.0423	-57.6475	-153.305	-14.0108	-54.8573	-142.85	38.1963	-20.0549	-143.14	42.4564	-45.2729	-142.352	48.0396	-65.4251	-129.872	33.8685	20.427	-139.483	34.0797	52.2439	-110.06	7.60394	40.3218	
204	1.7	-125.183	-26.3497	37.1833	-133.888	-42.5849	6.52926	-137.45	-43.8637	-17.1995	-141.402	-31.1498	-44.2235	-86.3096	-2.4833	-21.311	-84.577	-3.45316	-48.6997	-88.6023	-11.5305	-75.6927	-101.7	22.9118	-25.1981	-95.5556	23.5205	-52.5644	-99.8262	20.5671	-83.913	-121.036	28.3884	-29.0569	-130.355	16.1478	-58.9813	-147.668	-6.33026	-63.7785	-142.54	39.4221	-20.0079	-143.283	43.3101	-43.8574	-143.4	51.8362	-66.0172	-127.711	31.521	22.9824	-136.976	30.2229	51.6244	-111.325	10.0174	42.1192	
205	1.70833	-124.049	-31.1701	36.554	-135.436	-44.2973	9.52875	-135.992	-44.4591	-21.4552	-139.58	-37.7522	-44.3386	-89.1386	-1.76332	-17.5076	-80.8071	-7.92294	-47.2632	-86.9766	-11.076	-73.7348	-98.0583	20.4819	-24.0537	-94.9295	24.9211	-53.3068	-96.75	20.3467	-85.3438	-120.356	32.4893	-31.2451	-126.779	22.3867	-60.5651	-137.698	-0.489729	-72.2906	-138.365	40.217	-23.6515	-141.777	44.1161	-43.904	-137.454	50.95	-64.0612	-126.341	32.5541	23.5916	-140.627	32.8753	51.199	-113.024	10.185	41.8239	
206	1.71667	-125.264	-30.5624	34.8672	-135.678	-44.2497	7.64041	-136.655	-45.4169	-20.1632	-138.568	-39.0567	-47.6412	-89.3751	-1.14082	-19.6546	-80.9564	-9.23742	-49.5096	-85.4523	-14.1567	-74.6389	-96.2572	19.2352	-25.7074	-93.6037	24.4582	-54.3126	-92.4647	18.8703	-83.1975	-118.859	31.9322	-27.725	-119.319	25.7925	-58.8518	-134.317	7.04014	-80.3571	-139.812	39.1645	-19.8989	-138.719	43.6361	-44.7273	-133.79	51.718	-68.9246	-125.071	31.0445	23.2614	-139.464	31.9098	53.1326	-110.933	5.96462	39.3851	
207	1.725	-126.29	-30.9207	36.7972	-136.117	-46.6405	7.94899	-135.327	-49.2635	-21.5542	-138.008	-44.6079	-45.3019	-87.1126	-4.60323	-21.2455	-81.1387	-10.9909	-47.0537	-86.3909	-15.0546	-73.0037	-96.3446	19.6507	-26.2512	-90.886	22.8271	-52.9345	-90.814	20.7522	-84.7162	-113.898	28.1667	-28.4173	-118.069	30.4752	-56.9776	-124.137	14.8366	-80.8375	-139.808	42.1724	-22.8758	-139.436	46.4604	-44.8352	-137.998	52.2104	-70.0398	-125.882	29.379	23.7874	-135.849	30.6635	50.5244	-113.281	5.57673	42.5788	
208	1.73333	-127.643	-32.7687	38.0176	-135.32	-44.9999	7.41331	-135.847	-52.5239	-21.1288	-139.109	-44.2626	-47.4465	-88.7528	-4.22093	-21.7311	-80.0709	-12.7489	-48.7328	-86.5993	-15.2086	-73.8183	-97.0363	18.9123	-24.022	-89.8101	20.2731	-53.6113	-90.5154	20.6867	-87.06	-116.084	32.0057	-26.6871	-112.434	27.5393	-58.3315	-119.449	18.819	-85.0176	-135.153	38.3411	-23.1083	-136.951	42.6323	-48.6008	-136.396	48.2177	-67.3979	-127.285	28.3241	24.9757	-137.944	29.5035	51.3091	-113.975	6.06285	40.9042	
209	1.74167	-127.433	-32.6409	37.5229	-135.955	-47.7873	10.4398	-135.294	-51.0411	-22.5488	-138.236	-44.2226	-44.082	-89.25	-5.91672	-18.2696	-83.2831	-10.0849	-48.2134	-89.1788	-13.4446	-75.9358	-97.4874	19.9315	-24.5132	-89.1056	21.8899	-54.7112	-85.7469	17.7109	-84.3556	-113.307	28.9092	-25.2482	-109.313	29.965	-54.2601	-113.827	21.7408	-84.5274	-137.542	39.3982	-23.4889	-138.619	43.1061	-47.9542	-136.152	43.9852	-74.2907	-126.577	29.9577	23.9149	-133.951	26.9333	48.0578	-113.12	6.49339	42.6081	
210	1.75	-124.772	-32.466	35.6617	-135.756	-47.6555	9.43657	-135.59	-50.0657	-19.334	-137.457	-45.5276	-45.4361	-85.2768	-8.07671	-20.5518	-80.6709	-12.6053	-49.5071	-88.5369	-13.2354	-73.6838	-95.2151	18.1168	-25.7835	-88.4351	19.1357	-50.1005	-86.4121	20.1043	-85.5961	-114.674	30.2475	-27.1233	-109.037	28.7384	-52.2399	-110.403	23.3281	-81.5108	-137.232	39.0955	-22.273	-136.462	39.3552	-49.0163	-133.334	37.0053	-73.7692	-125.409	28.47	26.516	-139.073	27.5925	52.3556	-111.074	4.32478	39.389	
211	1.75833	-126.98	-30.9966	37.5909	-134.382	-45.9172	7.38369	-135.032	-52.6655	-20.6055	-138.094	-45.6911	-40.9074	-84.8835	-7.81146	-20.1657	-82.5485	-9.67462	-46.4371	-88.8031	-13.473	-75.8747	-96.9068	18.9616	-23.4269	-88.4586	19.9326	-48.9024	-85.6533	21.3232	-83.4194	-113.08	30.8364	-28.8316	-108.148	30.4259	-55.0915	-108.363	24.3176	-83.5174	-134.439	36.2979	-25.4078	-135.122	34.4508	-47.3453	-132.705	30.3445	-72.6997	-127.238	31.1966	22.7045	-138.465	28.9932	48.5403	-109.12	3.63614	41.8424	
212	1.76667	-124.077	-35.3838	38.1458	-133.891	-52.1584	10.8685	-134.296	-51.8757	-20.1593	-138.23	-44.4704	-41.24	-86.7226	-7.05803	-19.7386	-81.6616	-10.2651	-45.5387	-86.786	-15.3927	-73.1839	-95.3786	14.3231	-21.1776	-90.2315	22.0385	-50.6484	-83.3898	19.5318	-80.7619	-113.492	28.2229	-25.4721	-107.714	28.4746	-55.155	-107.363	25.0652	-78.7576	-136.287	32.0526	-20.8464	-134.273	30.9524	-48.5396	-137.968	23.5021	-73.536	-130.224	29.8727	23.7513	-139.869	29.1802	51.5945	-114.51	6.297	39.4718	
213	1.775	-126.782	-30.2219	39.7506	-134.402	-51.7226	9.70053	-134.233	-49.4423	-19.1167	-136.989	-42.6366	-46.0683	-87.3757	-4.54381	-21.7443	-81.94	-10.1091	-46.2464	-89.2812	-11.8372	-71.063	-95.0452	18.2932	-26.1154	-88.8298	21.3456	-48.4129	-85.9383	23.2595	-78.7739	-115.096	29.2135	-25.5351	-108.014	29.7096	-53.5783	-105.616	24.2519	-77.7927	-135.294	30.7273	-23.6515	-132.57	25.789	-50.462	-137.008	14.0373	-76.3756	-130.976	30.458	22.3848	-141.588	28.3495	49.3855	-113.64	4.09162	42.9011	
214	1.78333	-125.574	-31.1821	38.9049	-133.17	-47.7529	6.79333	-134.614	-48.2543	-20.9203	-138.85	-40.8832	-41.6663	-86.7622	-4.74705	-20.6867	-84.8052	-7.95308	-46.6514	-88.9133	-15.8868	-74.0385	-96.7333	17.3913	-22.3073	-85.5685	19.3413	-51.8829	-81.8972	20.4402	-80.2133	-116.789	29.328	-26.1809	-110.663	31.0947	-51.8859	-108.394	24.4013	-81.4805	-136.085	30.8168	-24.0197	-135.037	22.6334	-52.9904	-141.236	4.39799	-75.1982	-128.174	29.8417	21.4636	-140.319	26.5758	49.1402	-113.268	8.15361	41.6423	
215	1.79167	-126.031	-29.8688	35.8192	-133.436	-47.2541	7.10742	-135.283	-47.7491	-21.4261	-139.516	-39.1023	-41.3088	-90.4075	-3.504	-17.2591	-84.9214	-6.458	-45.4755	-90.0692	-13.1491	-71.1521	-97.4388	20.0556	-25.7867	-88.7521	20.878	-48.7445	-82.2411	22.2629	-81.9844	-113.143	28.7492	-29.1315	-112.541	31.6901	-53.5989	-107.289	23.7599	-79.2659	-136.392	31.5057	-26.6813	-135.621	21.4104	-50.9761	-143.244	-2.52813	-70.5873	-131.388	29.5039	21.0312	-138.723	26.5681	51.4933	-111.427	7.54996	39.1945	
216	1.8	-127.009	-29.7612	39.3908	-133.481	-45.3581	4.24518	-135.01	-47.4673	-21.3821	-139.37	-33.1389	-43.8274	-88.6793	-2.82378	-18.6001	-84.8343	-6.98269	-49.8058	-88.8786	-13.4358	-72.6621	-96.151	17.0367	-22.7869	-86.6599	21.5197	-52.1881	-85.8618	23.5486	-82.3768	-116.579	27.3767	-25.658	-112.359	30.215	-55.182	-107.604	22.4038	-82.1087	-134.786	28.3866	-25.4683	-136.607	18.6747	-50.6903	-144.969	-8.70673	-65.0191	-128.103	28.0406	21.6976	-141.609	28.1513	47.2611	-113.6	7.62918	39.4435	
